<?xml version="1.0" encoding="utf-8"?>
<!-- Generator: Adobe Illustrator 16.0.0, SVG Export Plug-In . SVG Version: 6.00 Build 0)  -->
<!DOCTYPE svg PUBLIC "-//W3C//DTD SVG 1.1//EN" "http://www.w3.org/Graphics/SVG/1.1/DTD/svg11.dtd">
<svg version="1.1" id="Capa_1" xmlns="http://www.w3.org/2000/svg" xmlns:xlink="http://www.w3.org/1999/xlink" x="0px" y="0px"
	 width="224px" height="248px" viewBox="89.833 -80 224 248" enable-background="new 89.833 -80 224 248" xml:space="preserve">
<g>
	<g>
		<path fill="#00468D" d="M202.757-72.353c18.467,7.389,33.236,11.081,59.09,11.081c0,62.786-18.465,103.414-59.09,121.88
			c-40.627-18.466-59.094-59.094-59.094-121.88C169.517-61.272,187.984-64.965,202.757-72.353 M203.064-63.416
			c-13.865,6.239-30.346,9.542-51.083,10.22c0.745,26.701,5.244,48.858,13.401,65.948c8.403,17.607,20.651,30.317,37.375,38.757
			c16.723-8.438,28.971-21.149,37.373-38.755c8.156-17.093,12.654-39.252,13.4-65.958C232.412-53.944,218.273-57.571,203.064-63.416
			"/>
		<polygon fill="#00468D" points="208.296,42.004 202.757,45.834 197.217,42.004 197.217,-57.58 208.296,-57.58 		"/>
		<rect x="173.211" y="-39.113" fill="#00468D" width="59.093" height="11.081"/>
		<path fill="#00905B" d="M205.015,43.302c-3.711-20.844,13.396-42.35,13.396-42.35s-0.789,4.184,0.634,8.685
			c2.525,4.819,4.265,0.553,6.632-1.105c2.367-1.655,6.157-1.814,3.316-5.447c-1.818-2.527-3.316-3.237-3.316-3.237
			s7.264,1.104,9.001-0.157c3.397-3.396-0.711-4.581-1.815-7.029c-1.107-2.446,0.789-6.95-3.317-7.026
			c-4.104-0.078-7.421,7.345-7.421,7.345s-0.156-3.004-1.738-6.556c-2.131-3.946-4.579,0.238-5.92,1.896
			c-1.58,1.66-5.607,3-3.002,6.317c2.605,3.316,6.633,4.58,6.633,4.58c-2.212,1.501-12.135,21.186-13.002,23.797
			c-0.87,2.604,2.975-35.879,0.052-38.96c3.475,0.554,3.792,1.107,9.239-0.157c5.289-1.736,0.711-5.843-0.236-7.896
			c-0.949-2.052-2.211-8.135-5.606-4.815c-3.396,3.316-3.396,3.711-3.396,3.711s0.702-2.691,0.226-7.193
			c-1.58-4.895-7.094-2.046-7.646-1.02c-0.552,1.027-7.344-0.079-6.317,5.843c1.736,4.027,5.684,6.551,5.684,6.551
			s-3.395-0.155-6.474,1.5c-3.476,4.108,0.632,5.291,1.816,7.108c1.183,1.816,2.841,7.657,6.554,4.659
			c3-2.922,4.105-6.637,5.131-8.212c3.002,15.634-1.948,38.165-2.5,44.403c-2.844-6.948-12.344-18.899-15.66-21.901
			c2.132-0.391,5.607-1.418,8.37-3.553c4.106-3.472-1.42-5.133-2.92-6.553c-1.501-1.419-4.264-5.924-6.634-2.446
			c-1.817,3.395-2.214,4.895-2.214,4.895s-0.867-5.449-2.447-6.87c-3.08-3.237-5.842,0.946-7.106,2.606
			c-1.265,1.659-6.475,3.078-4.58,6.868c2.367,3.397,7.738,3.948,7.738,3.948s-2.527,1.028-4.659,3.081
			c-3.634,4.818,2.054,5.052,3.79,6.158c1.737,1.106,5.134,5.526,7.58,0.71c2.211-4.734,1.422-6.949,1.581-8.449
			c18,18.403,15.501,30.904,15.657,32.088C200.197,39.121,205.012,43.226,205.015,43.302"/>
		<path fill="#00468D" d="M136.838,49.729c11.365,5.822,24.432,9.701,39.205,11.605l-10.907,2.804v9.491
			c-10.015-2.611-19.593-6.294-28.858-10.688c3.054-0.57,6.129-1.371,9.181-2.666C141.989,57.082,139.187,53.413,136.838,49.729"/>
		<polygon fill="#002E64" points="168.687,64.55 179.015,65.748 178.869,62.277 		"/>
		<path fill="#00468D" d="M269.821,49.729c-11.384,5.84-24.45,9.701-39.202,11.625l10.885,2.805v9.49
			c10.035-2.631,19.612-6.295,28.877-10.686c-3.074-0.593-6.13-1.393-9.201-2.688C264.648,57.082,267.475,53.413,269.821,49.729"/>
		<polygon fill="#002E64" points="237.975,64.55 227.627,65.766 227.775,62.277 		"/>
		<path fill="#00468D" d="M168.148,65.883c23.539,4.254,47.058,3.568,70.593-0.275v13.02c-23.536,5.254-47.056,5.687-70.593,0.254
			V65.883z"/>
		<path fill="#FFFFFF" d="M179.876,69.824l2.253,9.084l-1.273-0.164l-0.604-2.726l-3.655-0.476l-1.307,2.476l-1.174-0.153
			l4.491-8.206L179.876,69.824z M180.015,75.002l-0.914-4.219l-0.026-0.004l-1.99,3.844L180.015,75.002z"/>
		<path fill="#FFFFFF" d="M186.871,70.664c1.335,0.141,2.327,0.594,2.974,1.35c0.646,0.755,0.897,1.831,0.749,3.223
			c-0.08,0.727-0.229,1.365-0.453,1.91c-0.221,0.545-0.524,0.992-0.904,1.338c-0.382,0.349-0.846,0.598-1.394,0.74
			c-0.546,0.149-1.181,0.182-1.903,0.104l-2.973-0.318l0.928-8.666L186.871,70.664z M186.144,78.368
			c0.128,0.017,0.292,0.023,0.488,0.023c0.196,0,0.407-0.026,0.636-0.079c0.225-0.055,0.456-0.144,0.684-0.266
			c0.229-0.123,0.443-0.299,0.641-0.533c0.198-0.23,0.37-0.529,0.521-0.896c0.15-0.363,0.253-0.813,0.31-1.346
			c0.056-0.518,0.054-0.988-0.003-1.406c-0.059-0.418-0.186-0.785-0.386-1.098c-0.201-0.311-0.474-0.562-0.822-0.75
			c-0.349-0.189-0.789-0.313-1.323-0.367l-1.943-0.212l-0.722,6.725L186.144,78.368z"/>
		<path fill="#FFFFFF" d="M198.919,71.594l3.039,8.85l-1.28-0.053l-0.841-2.663l-3.686-0.153l-1.088,2.58l-1.182-0.049l3.756-8.567
			L198.919,71.594z M199.511,76.736l-1.282-4.123h-0.024l-1.647,3.998L199.511,76.736z"/>
		<path fill="#FFFFFF" d="M207.031,72.813c-0.393-0.275-0.89-0.404-1.492-0.395c-0.244,0.006-0.483,0.035-0.718,0.09
			c-0.235,0.053-0.442,0.139-0.626,0.256c-0.178,0.117-0.322,0.273-0.428,0.467c-0.105,0.196-0.156,0.434-0.152,0.719
			c0.006,0.269,0.09,0.483,0.252,0.646c0.162,0.164,0.376,0.296,0.643,0.395c0.268,0.104,0.568,0.186,0.904,0.249
			c0.336,0.062,0.676,0.129,1.023,0.205c0.348,0.074,0.691,0.163,1.025,0.268c0.337,0.103,0.64,0.245,0.906,0.427
			c0.27,0.182,0.483,0.41,0.649,0.694c0.163,0.284,0.25,0.64,0.259,1.07c0.01,0.466-0.086,0.864-0.287,1.196
			c-0.201,0.336-0.463,0.609-0.781,0.824c-0.322,0.215-0.684,0.371-1.084,0.471c-0.402,0.102-0.803,0.154-1.201,0.165
			c-0.487,0.009-0.949-0.042-1.389-0.157c-0.438-0.113-0.824-0.292-1.159-0.531c-0.335-0.241-0.601-0.555-0.799-0.938
			c-0.198-0.381-0.304-0.838-0.314-1.367l1.099-0.023c0.008,0.366,0.086,0.682,0.232,0.941c0.146,0.262,0.34,0.477,0.573,0.644
			c0.235,0.167,0.511,0.286,0.821,0.36c0.309,0.077,0.629,0.111,0.954,0.105c0.261-0.006,0.522-0.035,0.786-0.09
			c0.264-0.056,0.498-0.142,0.709-0.265c0.208-0.122,0.377-0.286,0.504-0.494c0.125-0.204,0.186-0.47,0.18-0.782
			c-0.008-0.303-0.092-0.545-0.254-0.729c-0.163-0.185-0.377-0.333-0.643-0.444c-0.27-0.111-0.569-0.201-0.904-0.27
			c-0.338-0.065-0.679-0.134-1.025-0.205c-0.347-0.072-0.689-0.154-1.025-0.249s-0.637-0.222-0.904-0.384
			c-0.27-0.162-0.484-0.375-0.648-0.635c-0.164-0.261-0.249-0.592-0.256-0.992c-0.011-0.438,0.07-0.82,0.245-1.146
			c0.17-0.325,0.403-0.593,0.697-0.808c0.292-0.214,0.627-0.374,1.003-0.483c0.378-0.108,0.766-0.167,1.164-0.176
			c0.447-0.009,0.861,0.038,1.248,0.135c0.383,0.1,0.721,0.258,1.016,0.479c0.294,0.222,0.529,0.506,0.703,0.848
			c0.172,0.344,0.273,0.754,0.297,1.233l-1.098,0.022C207.656,73.533,207.421,73.084,207.031,72.813"/>
		<polygon fill="#FFFFFF" points="209.228,72.543 209.158,71.57 216.109,71.059 216.181,72.029 213.282,72.246 213.851,79.965 
			212.697,80.049 212.126,72.33 		"/>
		<path fill="#FFFFFF" d="M220.801,70.521c0.825-0.094,1.491,0.035,2.003,0.386c0.512,0.354,0.807,0.88,0.888,1.585
			c0.059,0.524-0.009,1-0.202,1.421c-0.195,0.426-0.545,0.736-1.054,0.944l0.003,0.024c0.254,0.021,0.469,0.078,0.639,0.172
			c0.172,0.096,0.313,0.219,0.423,0.365c0.11,0.147,0.198,0.315,0.267,0.506c0.066,0.188,0.123,0.387,0.172,0.592
			c0.041,0.209,0.076,0.421,0.109,0.639c0.033,0.22,0.078,0.43,0.133,0.638c0.056,0.208,0.127,0.401,0.208,0.587
			c0.083,0.181,0.192,0.34,0.331,0.469l-1.287,0.147c-0.088-0.081-0.156-0.194-0.203-0.344s-0.084-0.321-0.115-0.511
			c-0.029-0.189-0.061-0.391-0.094-0.609c-0.031-0.217-0.08-0.43-0.145-0.635c-0.057-0.205-0.119-0.402-0.189-0.587
			c-0.07-0.183-0.166-0.344-0.287-0.471s-0.271-0.226-0.451-0.292c-0.18-0.068-0.409-0.084-0.693-0.051l-2.815,0.319l0.419,3.702
			l-1.152,0.129l-0.982-8.661L220.801,70.521z M221.49,74.424c0.238-0.07,0.441-0.172,0.609-0.311
			c0.169-0.137,0.297-0.31,0.383-0.523c0.088-0.21,0.113-0.473,0.076-0.786c-0.049-0.438-0.211-0.78-0.484-1.027
			s-0.682-0.341-1.222-0.279l-2.864,0.324l0.344,3.021l2.4-0.271C220.999,74.541,221.251,74.488,221.49,74.424"/>
		<path fill="#FFFFFF" d="M228.437,69.531l4.566,8.168l-1.271,0.178l-1.301-2.471l-3.65,0.506l-0.608,2.732l-1.175,0.159l2.17-9.098
			L228.437,69.531z M229.935,74.488l-1.996-3.83l-0.025,0.004l-0.906,4.229L229.935,74.488z"/>
	</g>
	<line fill="none" stroke="#9B999E" stroke-width="1.2379" x1="101.329" y1="106.256" x2="302.212" y2="106.256"/>
	<path fill="#727176" d="M110.61,124.576c-0.082,0.147-0.142,0.328-0.185,0.539c-0.04,0.211-0.062,0.409-0.062,0.59
		c0,0.527,0.165,0.939,0.492,1.24c0.327,0.306,0.746,0.455,1.255,0.455c0.521,0,1.026-0.131,1.508-0.391
		c0.485-0.264,0.912-0.605,1.279-1.02c0.369-0.421,0.66-0.887,0.874-1.404c0.21-0.515,0.317-1.025,0.317-1.533
		c0-0.359-0.078-0.65-0.231-0.873c-0.157-0.221-0.354-0.393-0.592-0.516s-0.482-0.211-0.736-0.26
		c-0.255-0.049-0.479-0.071-0.676-0.071c-0.853,0-1.745,0.187-2.679,0.563c-0.933,0.377-1.854,0.891-2.765,1.535
		c-0.909,0.647-1.772,1.406-2.591,2.272c-0.821,0.869-1.541,1.802-2.163,2.803c-0.625,0.999-1.118,2.029-1.488,3.095
		c-0.367,1.064-0.551,2.113-0.551,3.145c0,0.606,0.068,1.16,0.209,1.661c0.138,0.495,0.348,0.932,0.625,1.302
		c0.278,0.366,0.624,0.652,1.032,0.857c0.409,0.201,0.885,0.307,1.427,0.307c0.704,0,1.394-0.154,2.063-0.467
		c0.672-0.31,1.272-0.731,1.806-1.265c0.532-0.531,0.959-1.146,1.278-1.843c0.318-0.693,0.478-1.42,0.478-2.172
		c0-0.673-0.141-1.24-0.418-1.695c-0.277-0.462-0.777-0.69-1.498-0.69c-0.377,0-0.738,0.099-1.082,0.297
		c-0.344,0.194-0.671,0.437-0.98,0.724c-0.313,0.288-0.592,0.592-0.837,0.908c-0.248,0.32-0.458,0.611-0.638,0.872l-0.247-0.12
		c0.28-0.427,0.583-0.834,0.911-1.216c0.328-0.388,0.684-0.735,1.069-1.046c0.385-0.311,0.806-0.558,1.266-0.736
		c0.458-0.182,0.967-0.27,1.522-0.27c0.853,0,1.547,0.256,2.088,0.768c0.541,0.521,0.812,1.195,0.812,2.031
		c0,0.999-0.25,1.883-0.748,2.653c-0.5,0.769-1.148,1.417-1.943,1.94c-0.794,0.525-1.678,0.926-2.653,1.203
		c-0.974,0.279-1.939,0.42-2.886,0.42c-1.64,0-2.907-0.468-3.808-1.402c-0.9-0.934-1.353-2.211-1.353-3.832
		c0-1.049,0.222-2.098,0.665-3.145c0.439-1.05,1.035-2.054,1.782-3.012c0.745-0.958,1.61-1.846,2.603-2.666
		c0.991-0.818,2.031-1.529,3.132-2.136c1.096-0.606,2.21-1.081,3.342-1.427c1.129-0.344,2.211-0.516,3.245-0.516
		c0.475,0,0.932,0.049,1.374,0.146c0.443,0.098,0.835,0.261,1.177,0.48c0.347,0.22,0.624,0.518,0.827,0.896
		c0.202,0.379,0.308,0.844,0.308,1.4c0,0.606-0.147,1.151-0.442,1.634c-0.294,0.484-0.677,0.889-1.144,1.218
		c-0.467,0.327-0.989,0.581-1.56,0.76c-0.573,0.185-1.131,0.271-1.67,0.271c-0.344,0-0.676-0.039-0.996-0.123
		c-0.32-0.084-0.603-0.212-0.848-0.38c-0.244-0.174-0.447-0.396-0.603-0.666c-0.154-0.272-0.233-0.594-0.233-0.971
		c0-0.229,0.034-0.455,0.099-0.688c0.063-0.229,0.129-0.4,0.194-0.515L110.61,124.576z"/>
	<path fill="#727176" d="M128.349,132.412c-0.327,0.428-0.717,0.813-1.168,1.156c-0.451,0.342-0.947,0.514-1.485,0.514
		c-0.377,0-0.706-0.078-0.983-0.244c-0.277-0.164-0.532-0.395-0.761-0.689c-0.198,0.823-0.522,1.596-0.972,2.324
		c-0.448,0.729-0.996,1.366-1.631,1.915c-0.641,0.55-1.353,0.983-2.138,1.302c-0.787,0.32-1.606,0.482-2.457,0.482
		c-0.901,0-1.623-0.262-2.163-0.775c-0.539-0.519-0.812-1.225-0.812-2.125c0-0.869,0.222-1.701,0.664-2.494
		c0.443-0.796,1.016-1.493,1.72-2.09c0.705-0.6,1.481-1.072,2.334-1.424c0.854-0.353,1.69-0.528,2.506-0.528
		c0.886,0,1.581,0.236,2.09,0.71c0.507,0.476,0.818,1.05,0.931,1.722c0.085,0.491,0.269,0.886,0.555,1.182
		c0.287,0.292,0.659,0.438,1.118,0.438c0.443,0,0.861-0.131,1.252-0.391c0.394-0.264,0.812-0.658,1.254-1.181L128.349,132.412z
		 M118.153,138.457c0.409-0.276,0.802-0.637,1.179-1.081c0.377-0.442,0.725-0.941,1.043-1.499c0.32-0.558,0.6-1.112,0.836-1.67
		c0.239-0.556,0.421-1.09,0.554-1.596c0.13-0.51,0.197-0.936,0.197-1.278c0-0.411-0.086-0.729-0.259-0.96
		c-0.171-0.23-0.446-0.345-0.822-0.345c-0.41,0-0.82,0.14-1.228,0.418c-0.41,0.281-0.805,0.639-1.177,1.082
		c-0.382,0.442-0.728,0.942-1.048,1.497c-0.319,0.559-0.598,1.116-0.835,1.674c-0.236,0.556-0.419,1.087-0.552,1.595
		c-0.131,0.509-0.198,0.935-0.198,1.278c0,0.41,0.088,0.729,0.26,0.957c0.171,0.23,0.448,0.346,0.822,0.346
		C117.334,138.876,117.743,138.736,118.153,138.457"/>
	<path fill="#727176" d="M136.702,121.604l-7.591,12.086c-0.638,1.032-1.148,1.891-1.523,2.566
		c-0.379,0.682-0.565,1.236-0.565,1.661c0,0.442,0.179,0.663,0.542,0.663c0.344,0,0.81-0.189,1.399-0.563
		c0.591-0.378,1.218-0.901,1.892-1.573c0.621-0.623,1.235-1.288,1.841-1.989c0.607-0.708,1.195-1.437,1.769-2.19l0.224,0.076
		c-0.199,0.264-0.424,0.557-0.677,0.885c-0.254,0.326-0.522,0.66-0.797,0.994c-0.28,0.336-0.563,0.671-0.848,1.008
		c-0.287,0.336-0.57,0.644-0.85,0.922c-0.95,0.967-1.789,1.688-2.518,2.162c-0.729,0.476-1.487,0.71-2.272,0.71
		c-1.114,0-1.671-0.491-1.671-1.472c0-0.459,0.168-1.035,0.506-1.732c0.335-0.697,0.854-1.635,1.559-2.814l6.853-11.252
		L136.702,121.604z"/>
	<path fill="#727176" d="M144.761,132.34c-0.508,0.686-1.053,1.367-1.634,2.039c-0.583,0.672-1.274,1.373-2.077,2.113
		c-1.129,1.016-2.214,1.717-3.255,2.102c-1.039,0.383-2.018,0.58-2.935,0.58c-0.934,0-1.671-0.283-2.213-0.841
		c-0.539-0.558-0.809-1.274-0.809-2.162c0-0.785,0.235-1.563,0.709-2.335c0.478-0.768,1.074-1.459,1.796-2.063
		c0.722-0.606,1.512-1.098,2.371-1.474c0.861-0.377,1.675-0.563,2.447-0.563c0.702,0,1.252,0.135,1.645,0.404
		c0.395,0.272,0.592,0.652,0.592,1.145c0,0.391-0.14,0.75-0.407,1.078c-0.269,0.331-0.62,0.623-1.045,0.887
		c-0.425,0.262-0.905,0.492-1.437,0.687c-0.533,0.198-1.06,0.37-1.582,0.519c-0.526,0.145-1.018,0.268-1.474,0.366
		c-0.461,0.101-0.838,0.179-1.131,0.245c-0.083,0.33-0.124,0.624-0.124,0.887c0,0.705,0.197,1.277,0.592,1.719
		c0.392,0.443,0.94,0.663,1.644,0.663c0.688,0,1.447-0.204,2.273-0.611c0.827-0.409,1.658-1.009,2.494-1.796
		c0.638-0.607,1.253-1.241,1.84-1.905c0.591-0.663,1.108-1.282,1.548-1.854L144.761,132.34z M139.245,130.176
		c-0.124-0.098-0.284-0.146-0.48-0.146c-0.407,0-0.853,0.172-1.326,0.517c-0.476,0.346-0.922,0.765-1.339,1.266
		c-0.419,0.497-0.787,1.024-1.106,1.573c-0.319,0.547-0.528,1.027-0.626,1.436c0.672-0.131,1.31-0.348,1.917-0.648
		c0.607-0.305,1.141-0.647,1.61-1.033c0.467-0.387,0.835-0.796,1.116-1.229c0.276-0.436,0.418-0.849,0.418-1.242
		C139.429,130.441,139.367,130.275,139.245,130.176"/>
	<path fill="#727176" d="M138.077,140.742c-0.868,0.019-1.519,0.254-1.952,0.711c-0.434,0.461-0.651,1.098-0.651,1.914
		c0,0.396,0.063,0.762,0.197,1.096c0.131,0.338,0.315,0.627,0.551,0.873c0.237,0.246,0.527,0.439,0.859,0.578
		c0.334,0.139,0.718,0.207,1.145,0.207c0.769,0,1.499-0.152,2.186-0.465c0.688-0.313,1.34-0.73,1.953-1.253
		c0.613-0.528,1.194-1.118,1.746-1.782c0.549-0.661,1.063-1.344,1.547-2.039c0.48-0.699,0.937-1.39,1.364-2.076
		s0.827-1.301,1.205-1.844l-0.052-0.049c-0.262,0.312-0.55,0.609-0.871,0.896s-0.656,0.542-1.007,0.762
		c-0.353,0.222-0.729,0.402-1.133,0.542c-0.399,0.139-0.821,0.205-1.263,0.205c-0.671,0-1.183-0.233-1.537-0.698
		c-0.351-0.465-0.527-1.009-0.527-1.632c0-0.803,0.205-1.619,0.614-2.445c0.408-0.828,0.941-1.574,1.596-2.236
		c0.656-0.666,1.394-1.207,2.21-1.635c0.819-0.424,1.63-0.637,2.435-0.637c0.624,0,1.109,0.113,1.473,0.341
		c0.358,0.231,0.64,0.65,0.835,1.255l0.564-1.059l2.506-0.146c-0.886,1.509-1.751,3.031-2.604,4.571
		c-0.85,1.539-1.754,3.069-2.703,4.596c0.915-0.265,1.773-0.64,2.566-1.132c0.797-0.491,1.542-1.053,2.239-1.684
		c0.696-0.633,1.35-1.311,1.966-2.039c0.613-0.729,1.198-1.463,1.753-2.199l0.15,0.075c-0.54,0.783-1.134,1.559-1.782,2.32
		c-0.647,0.761-1.337,1.473-2.076,2.125c-0.737,0.656-1.521,1.235-2.359,1.732c-0.834,0.501-1.719,0.881-2.654,1.142
		c-0.589,1.018-1.256,1.942-2,2.775c-0.744,0.838-1.562,1.549-2.445,2.141c-0.886,0.592-1.844,1.047-2.875,1.375
		c-1.031,0.33-2.137,0.49-3.316,0.49c-0.607,0-1.181-0.05-1.723-0.156c-0.538-0.106-1.019-0.289-1.436-0.541
		c-0.418-0.257-0.749-0.582-0.995-0.984c-0.247-0.4-0.37-0.896-0.37-1.486c0-0.442,0.095-0.84,0.283-1.189
		c0.188-0.354,0.438-0.647,0.749-0.887c0.311-0.235,0.667-0.416,1.07-0.538c0.4-0.124,0.806-0.189,1.216-0.189
		c0.148,0,0.37,0.018,0.663,0.052c0.295,0.032,0.523,0.055,0.688,0.073v0.175H138.077z M144.441,137.695
		c0.165,0.328,0.524,0.491,1.081,0.491c0.346,0,0.697-0.124,1.057-0.366c0.361-0.248,0.711-0.563,1.055-0.949
		c0.345-0.385,0.672-0.82,0.985-1.314c0.312-0.491,0.581-0.982,0.813-1.475c0.227-0.492,0.407-0.963,0.54-1.412
		c0.129-0.451,0.196-0.831,0.196-1.142c0-0.181-0.013-0.356-0.037-0.526c-0.026-0.176-0.072-0.336-0.135-0.481
		c-0.065-0.148-0.165-0.268-0.295-0.355c-0.131-0.091-0.313-0.137-0.538-0.137c-0.607,0-1.207,0.235-1.796,0.7
		c-0.589,0.469-1.12,1.041-1.586,1.722c-0.465,0.678-0.848,1.388-1.142,2.125c-0.295,0.738-0.444,1.376-0.444,1.917
		C144.194,136.967,144.274,137.369,144.441,137.695"/>
	<path fill="#727176" d="M160.583,130.129c-0.77,1.215-1.432,2.25-1.99,3.108c-0.557,0.86-1.011,1.591-1.364,2.199
		c-0.35,0.603-0.612,1.101-0.786,1.483c-0.172,0.387-0.258,0.701-0.258,0.947c0,0.195,0.037,0.355,0.11,0.48
		c0.073,0.122,0.186,0.182,0.332,0.182c0.329,0,0.789-0.187,1.388-0.563c0.599-0.378,1.349-1.026,2.251-1.942
		c0.358-0.375,0.711-0.75,1.054-1.119c0.345-0.368,0.669-0.725,0.972-1.068c0.302-0.344,0.571-0.656,0.811-0.934
		c0.237-0.277,0.431-0.498,0.576-0.663l0.221,0.149c-0.198,0.26-0.438,0.56-0.724,0.895c-0.29,0.338-0.596,0.688-0.921,1.057
		c-0.331,0.368-0.665,0.734-1.009,1.096c-0.343,0.359-0.679,0.703-1.008,1.031c-0.951,0.949-1.764,1.611-2.445,1.988
		c-0.678,0.379-1.305,0.563-1.876,0.563c-0.545,0-0.961-0.146-1.254-0.439c-0.295-0.293-0.442-0.68-0.442-1.154
		c0-0.328,0.062-0.669,0.185-1.02c0.124-0.352,0.331-0.791,0.625-1.313c0.294-0.524,0.689-1.178,1.181-1.954
		c0.491-0.781,1.105-1.741,1.842-2.889L160.583,130.129z M162.833,125.017c0.237,0.23,0.358,0.501,0.358,0.812
		c0,0.327-0.135,0.629-0.397,0.897c-0.261,0.27-0.555,0.406-0.882,0.406c-0.36,0-0.674-0.093-0.934-0.283
		c-0.264-0.188-0.394-0.47-0.394-0.847c0-0.379,0.146-0.693,0.432-0.947s0.617-0.381,0.993-0.381
		C162.32,124.674,162.593,124.789,162.833,125.017"/>
	<path fill="#727176" d="M175.644,132.412c-0.327,0.428-0.716,0.813-1.167,1.156c-0.451,0.342-0.945,0.514-1.488,0.514
		c-0.375,0-0.703-0.078-0.982-0.244c-0.277-0.164-0.531-0.395-0.763-0.689c-0.196,0.823-0.52,1.596-0.968,2.324
		c-0.453,0.729-0.996,1.366-1.634,1.915c-0.639,0.55-1.351,0.983-2.137,1.302c-0.788,0.32-1.608,0.482-2.457,0.482
		c-0.902,0-1.623-0.262-2.163-0.775c-0.54-0.519-0.809-1.225-0.809-2.125c0-0.869,0.22-1.701,0.663-2.494
		c0.442-0.796,1.014-1.493,1.719-2.09c0.704-0.6,1.485-1.072,2.334-1.424c0.854-0.353,1.69-0.528,2.508-0.528
		c0.882,0,1.578,0.236,2.085,0.71c0.511,0.476,0.821,1.05,0.937,1.722c0.082,0.491,0.266,0.886,0.552,1.182
		c0.287,0.292,0.661,0.438,1.116,0.438c0.443,0,0.862-0.131,1.254-0.391c0.394-0.264,0.811-0.658,1.254-1.181L175.644,132.412z
		 M165.448,138.457c0.409-0.276,0.804-0.637,1.179-1.081c0.375-0.442,0.724-0.941,1.045-1.499c0.318-0.558,0.597-1.112,0.833-1.67
		c0.238-0.556,0.422-1.09,0.554-1.596c0.132-0.51,0.197-0.936,0.197-1.278c0-0.411-0.086-0.729-0.255-0.96
		c-0.174-0.23-0.447-0.345-0.824-0.345c-0.412,0-0.819,0.14-1.229,0.418c-0.41,0.281-0.804,0.639-1.18,1.082
		c-0.377,0.442-0.726,0.942-1.044,1.497c-0.32,0.559-0.6,1.116-0.835,1.674c-0.238,0.556-0.421,1.087-0.549,1.595
		c-0.135,0.509-0.2,0.935-0.2,1.278c0,0.41,0.087,0.729,0.257,0.957c0.172,0.23,0.446,0.346,0.823,0.346
		C164.627,138.876,165.037,138.736,165.448,138.457"/>
	<path fill="#727176" d="M178.076,133.568c0.08-0.293,0.207-0.561,0.38-0.799c0.172-0.236,0.386-0.426,0.637-0.563
		c0.256-0.142,0.555-0.211,0.898-0.211c0.329,0,0.627,0.095,0.894,0.284c0.273,0.186,0.409,0.46,0.409,0.819
		c0,0.442-0.16,0.785-0.479,1.021c-0.322,0.236-0.685,0.363-1.095,0.381c-0.082,0.23-0.136,0.46-0.159,0.688
		c-0.025,0.23-0.038,0.461-0.038,0.688c0,0.558,0.135,1.027,0.406,1.414c0.271,0.385,0.613,0.693,1.033,0.92
		c0.417,0.23,0.881,0.398,1.385,0.502c0.51,0.107,0.995,0.161,1.454,0.161c0.818,0,1.526-0.146,2.124-0.439
		c0.597-0.297,1.11-0.692,1.538-1.192c0.423-0.499,0.774-1.07,1.042-1.709c0.272-0.637,0.483-1.311,0.638-2.015
		c0.158-0.706,0.269-1.411,0.332-2.125c0.066-0.712,0.116-1.382,0.147-2.003c0.047-1.132,0.206-2.205,0.468-3.219
		c0.264-1.016,0.651-1.905,1.168-2.665c0.516-0.76,1.162-1.364,1.941-1.806c0.777-0.443,1.706-0.665,2.787-0.665
		c0.457,0,0.906,0.047,1.338,0.135c0.436,0.091,0.815,0.241,1.144,0.456c0.329,0.213,0.593,0.477,0.798,0.796
		c0.205,0.323,0.309,0.717,0.309,1.194c0,0.392-0.076,0.723-0.233,0.995c-0.155,0.27-0.358,0.482-0.614,0.638
		c-0.256,0.158-0.549,0.271-0.885,0.344s-0.684,0.11-1.043,0.11c0.228-0.378,0.404-0.745,0.525-1.106
		c0.125-0.358,0.188-0.768,0.188-1.226c0-0.626-0.168-1.12-0.506-1.489c-0.338-0.365-0.773-0.551-1.316-0.551
		c-0.635,0-1.164,0.154-1.582,0.467c-0.417,0.31-0.766,0.732-1.044,1.264c-0.276,0.531-0.489,1.155-0.64,1.866
		c-0.146,0.714-0.267,1.47-0.367,2.261c-0.098,0.795-0.178,1.613-0.243,2.445c-0.068,0.839-0.148,1.656-0.247,2.461
		c-0.083,0.699-0.27,1.465-0.565,2.282c-0.295,0.819-0.745,1.585-1.352,2.299c-0.606,0.71-1.398,1.307-2.37,1.78
		c-0.978,0.474-2.184,0.713-3.625,0.713c-0.704,0-1.4-0.094-2.09-0.283c-0.686-0.187-1.297-0.48-1.828-0.871
		c-0.533-0.395-0.963-0.887-1.291-1.475c-0.327-0.59-0.492-1.278-0.492-2.064C177.952,134.168,177.993,133.861,178.076,133.568"/>
	<path fill="#727176" d="M194.243,130.571l0.173-0.442h1.89l1.844-3.097l2.653-0.099l-2.039,3.195h3.119l-0.22,0.442h-3.169
		c-0.738,1.212-1.361,2.232-1.869,3.058c-0.508,0.828-0.912,1.516-1.215,2.065c-0.306,0.546-0.525,0.985-0.667,1.315
		c-0.138,0.326-0.205,0.611-0.205,0.858c0,0.211,0.056,0.385,0.169,0.515c0.115,0.129,0.279,0.198,0.492,0.198
		c0.41,0,0.949-0.21,1.623-0.629c0.671-0.415,1.391-0.995,2.16-1.729c0.525-0.526,1.1-1.14,1.721-1.843
		c0.622-0.706,1.205-1.417,1.743-2.138l0.146,0.123c-0.375,0.492-0.847,1.09-1.425,1.795c-0.572,0.703-1.201,1.4-1.891,2.09
		c-0.376,0.377-0.766,0.731-1.166,1.066c-0.402,0.338-0.809,0.633-1.217,0.885c-0.41,0.254-0.813,0.455-1.207,0.602
		c-0.39,0.146-0.776,0.22-1.15,0.22c-0.525,0-0.984-0.116-1.375-0.353c-0.396-0.238-0.59-0.65-0.59-1.242
		c0-0.426,0.089-0.863,0.268-1.315c0.183-0.45,0.432-0.946,0.749-1.483c0.319-0.544,0.69-1.139,1.117-1.797
		c0.427-0.656,0.888-1.408,1.376-2.26L194.243,130.571L194.243,130.571z"/>
	<path fill="#727176" d="M212.767,132.34c-0.508,0.686-1.051,1.367-1.633,2.039s-1.275,1.373-2.076,2.113
		c-1.128,1.016-2.215,1.717-3.256,2.102c-1.039,0.383-2.02,0.58-2.937,0.58c-0.933,0-1.667-0.283-2.209-0.841
		c-0.54-0.558-0.812-1.274-0.812-2.162c0-0.785,0.237-1.563,0.713-2.335c0.472-0.768,1.072-1.459,1.791-2.063
		c0.721-0.606,1.511-1.098,2.372-1.474s1.676-0.563,2.444-0.563c0.706,0,1.254,0.135,1.65,0.404
		c0.391,0.272,0.586,0.652,0.586,1.145c0,0.391-0.135,0.75-0.405,1.078c-0.271,0.331-0.618,0.623-1.044,0.887
		c-0.424,0.262-0.903,0.492-1.437,0.687c-0.533,0.198-1.06,0.37-1.585,0.519c-0.523,0.145-1.014,0.268-1.473,0.366
		c-0.458,0.101-0.838,0.179-1.129,0.245c-0.084,0.33-0.126,0.624-0.126,0.887c0,0.705,0.2,1.277,0.59,1.719
		c0.396,0.443,0.942,0.663,1.649,0.663c0.687,0,1.444-0.204,2.268-0.611c0.83-0.409,1.661-1.009,2.498-1.796
		c0.639-0.607,1.25-1.241,1.842-1.905c0.589-0.663,1.105-1.282,1.544-1.854L212.767,132.34z M207.251,130.176
		c-0.122-0.098-0.283-0.146-0.479-0.146c-0.41,0-0.852,0.172-1.326,0.517c-0.477,0.346-0.922,0.765-1.338,1.266
		c-0.418,0.497-0.789,1.024-1.107,1.573c-0.32,0.547-0.528,1.027-0.627,1.436c0.672-0.131,1.312-0.348,1.916-0.648
		c0.605-0.305,1.145-0.647,1.612-1.033c0.464-0.387,0.837-0.796,1.116-1.229c0.277-0.436,0.417-0.849,0.417-1.242
		C207.437,130.441,207.375,130.275,207.251,130.176"/>
	<path fill="#727176" d="M221.072,121.604l-7.592,12.086c-0.64,1.032-1.148,1.891-1.521,2.566c-0.379,0.682-0.568,1.236-0.568,1.661
		c0,0.442,0.182,0.663,0.541,0.663c0.346,0,0.813-0.189,1.4-0.563c0.59-0.378,1.221-0.901,1.892-1.573
		c0.624-0.623,1.237-1.288,1.845-1.989c0.606-0.708,1.193-1.437,1.768-2.19l0.223,0.076c-0.199,0.264-0.422,0.557-0.678,0.885
		c-0.253,0.326-0.52,0.66-0.799,0.994c-0.277,0.336-0.562,0.671-0.848,1.008c-0.285,0.336-0.566,0.644-0.848,0.922
		c-0.948,0.967-1.79,1.688-2.518,2.162c-0.73,0.476-1.486,0.71-2.273,0.71c-1.113,0-1.669-0.491-1.669-1.472
		c0-0.459,0.165-1.035,0.503-1.732c0.337-0.697,0.856-1.635,1.563-2.814l6.85-11.252L221.072,121.604z"/>
	<path fill="#727176" d="M227.436,121.604l-7.591,12.086c-0.641,1.032-1.148,1.891-1.525,2.566
		c-0.377,0.682-0.566,1.236-0.566,1.661c0,0.442,0.182,0.663,0.543,0.663c0.344,0,0.811-0.189,1.398-0.563
		c0.59-0.378,1.22-0.901,1.893-1.573c0.624-0.623,1.237-1.288,1.843-1.989c0.606-0.708,1.195-1.437,1.767-2.19l0.221,0.076
		c-0.193,0.264-0.42,0.557-0.674,0.885c-0.252,0.326-0.521,0.66-0.799,0.994c-0.277,0.336-0.562,0.671-0.848,1.008
		c-0.285,0.336-0.565,0.644-0.847,0.922c-0.952,0.967-1.789,1.688-2.519,2.162c-0.729,0.476-1.485,0.71-2.272,0.71
		c-1.115,0-1.671-0.491-1.671-1.472c0-0.459,0.166-1.035,0.502-1.732c0.338-0.697,0.855-1.635,1.561-2.814l6.854-11.252
		L227.436,121.604z"/>
	<path fill="#727176" d="M232.277,130.275l2.555-0.146c-0.15,0.296-0.365,0.651-0.641,1.07c-0.276,0.417-0.58,0.866-0.906,1.351
		c-0.329,0.48-0.66,0.983-0.996,1.499c-0.337,0.514-0.643,1.014-0.926,1.496c-0.276,0.486-0.502,0.936-0.672,1.352
		c-0.17,0.419-0.258,0.775-0.258,1.072c0,0.409,0.204,0.613,0.612,0.613c0.396,0,0.927-0.23,1.597-0.688
		c0.673-0.458,1.377-1.065,2.115-1.817c0.313-0.313,0.627-0.648,0.946-1.01c0.319-0.357,0.627-0.715,0.92-1.067
		c0.298-0.353,0.567-0.679,0.812-0.979c0.246-0.306,0.442-0.559,0.591-0.754l0.172,0.1c-0.427,0.572-0.92,1.209-1.474,1.904
		c-0.557,0.699-1.229,1.438-2.014,2.225c-0.789,0.786-1.561,1.428-2.322,1.926c-0.764,0.504-1.52,0.754-2.273,0.754
		c-0.525,0-0.931-0.139-1.218-0.41c-0.284-0.27-0.428-0.6-0.428-0.994c0-0.13,0.005-0.253,0.022-0.369
		c0.017-0.114,0.039-0.202,0.073-0.27h-0.049c-0.507,0.574-1.079,1.059-1.722,1.45c-0.635,0.394-1.327,0.591-2.061,0.591
		c-0.396,0-0.73-0.074-1.008-0.225c-0.279-0.146-0.504-0.346-0.675-0.598c-0.172-0.256-0.302-0.544-0.382-0.862
		c-0.08-0.317-0.124-0.652-0.124-0.995c0-0.803,0.224-1.607,0.665-2.41c0.44-0.801,1-1.526,1.671-2.172
		c0.669-0.648,1.419-1.174,2.249-1.572c0.824-0.4,1.615-0.602,2.369-0.602c0.574,0,1.023,0.119,1.353,0.366
		c0.327,0.249,0.597,0.634,0.81,1.155L232.277,130.275z M225.138,137.806c0.154,0.354,0.489,0.527,0.995,0.527
		c0.343-0.016,0.704-0.157,1.081-0.431c0.374-0.27,0.74-0.606,1.094-1.018c0.351-0.41,0.688-0.865,1.004-1.363
		c0.32-0.498,0.601-1.005,0.838-1.514c0.236-0.505,0.426-0.985,0.564-1.436c0.14-0.45,0.209-0.832,0.209-1.143
		c0-0.443-0.082-0.786-0.246-1.034c-0.162-0.241-0.484-0.368-0.958-0.368c-0.378,0-0.757,0.114-1.143,0.345s-0.754,0.533-1.104,0.91
		c-0.354,0.377-0.69,0.798-1.01,1.266c-0.318,0.469-0.594,0.946-0.823,1.438c-0.228,0.489-0.409,0.962-0.539,1.411
		c-0.132,0.449-0.195,0.84-0.195,1.167C224.905,137.042,224.984,137.457,225.138,137.806"/>
	<path fill="#727176" d="M265.248,121.036c-1.035,0.361-1.916,0.91-2.652,1.646c-0.738,0.736-1.402,1.581-1.989,2.532
		c-0.591,0.951-1.142,1.978-1.649,3.084c-0.508,1.104-1.047,2.212-1.618,3.317c-0.577,1.104-1.214,2.172-1.919,3.205
		s-1.54,1.957-2.506,2.779l0.049,0.048c1.162-0.753,2.225-1.632,3.182-2.641c0.961-1.008,1.881-2.056,2.768-3.145
		c0.885-1.091,1.746-2.185,2.592-3.282c0.842-1.098,1.732-2.111,2.664-3.044c0.723-0.738,1.475-1.386,2.259-1.944
		c0.789-0.557,1.567-1.022,2.348-1.399c0.778-0.375,1.534-0.663,2.271-0.858c0.739-0.199,1.428-0.297,2.066-0.297
		c0.62,0,1.058,0.033,1.313,0.098c0.254,0.065,0.382,0.188,0.382,0.367c0,0.183-0.107,0.285-0.32,0.311
		c-0.21,0.023-0.385,0.035-0.513,0.035c-0.215,0-0.418-0.02-0.605-0.061c-0.188-0.039-0.371-0.077-0.55-0.111
		c-0.181-0.032-0.335-0.064-0.455-0.1c-0.122-0.033-0.227-0.047-0.307-0.047c-0.952,0.426-1.772,1.068-2.458,1.931
		c-0.688,0.856-1.328,1.831-1.916,2.925c-0.591,1.086-1.174,2.238-1.744,3.449c-0.574,1.213-1.217,2.373-1.93,3.478
		c-0.711,1.104-1.534,2.11-2.468,3.022c-0.933,0.908-2.065,1.608-3.391,2.101v0.048h0.22c1.721,0,3.162-0.194,4.322-0.59
		c1.164-0.394,2.152-0.893,2.963-1.498c0.81-0.607,1.486-1.275,2.027-2.006c0.543-0.727,1.031-1.436,1.473-2.125l0.197,0.127
		c-0.458,0.783-0.982,1.558-1.57,2.318c-0.592,0.764-1.304,1.441-2.139,2.042c-0.836,0.599-1.838,1.085-3.01,1.46
		c-1.171,0.381-2.566,0.565-4.19,0.565c-0.263,0-0.528-0.009-0.796-0.025c-0.271-0.015-0.465-0.023-0.578-0.023
		c-0.098,0-0.278,0.011-0.543,0.023c-0.26,0.018-0.529,0.025-0.809,0.025c-0.439,0-0.664-0.099-0.664-0.295
		c0-0.229,0.172-0.345,0.514-0.345c0.264,0,0.545,0.034,0.851,0.1c0.304,0.063,0.642,0.133,1.019,0.197
		c0.41-0.084,0.846-0.341,1.302-0.775s0.922-0.975,1.389-1.621c0.468-0.646,0.919-1.369,1.351-2.163
		c0.434-0.795,0.832-1.584,1.193-2.37c0.408-0.901,0.881-1.818,1.41-2.754c0.533-0.933,1.148-1.839,1.844-2.713
		c0.695-0.877,1.477-1.691,2.346-2.447c0.869-0.753,1.836-1.398,2.9-1.939l-0.049-0.05c-1.228,0.312-2.344,0.779-3.342,1.399
		c-1.002,0.624-1.93,1.34-2.803,2.15c-0.865,0.813-1.682,1.686-2.445,2.619c-0.76,0.935-1.513,1.879-2.26,2.835
		c-0.744,0.96-1.506,1.899-2.282,2.827c-0.782,0.926-1.612,1.774-2.496,2.543c-0.654,0.572-1.353,1.127-2.085,1.658
		c-0.74,0.532-1.508,0.979-2.313,1.34l-0.221-0.198c0.752-0.735,1.389-1.557,1.906-2.468c0.513-0.91,0.993-1.863,1.436-2.865
		c0.441-0.996,0.893-2.018,1.35-3.057c0.461-1.04,1.014-2.069,1.66-3.083c0.646-1.016,1.436-1.987,2.369-2.926
		c0.934-0.934,2.09-1.792,3.466-2.578l-0.05-0.052c-1.193,0.443-2.283,1.029-3.268,1.76c-0.982,0.727-1.891,1.514-2.729,2.357
		c-0.831,0.842-1.606,1.713-2.319,2.604c-0.711,0.893-1.381,1.73-2.002,2.517c-0.67,0.836-1.376,1.721-2.111,2.654
		c-0.74,0.934-1.539,1.803-2.396,2.607c-0.86,0.801-1.781,1.463-2.764,1.988c-0.986,0.522-2.058,0.783-3.22,0.783
		c-0.426,0-0.851-0.061-1.28-0.184c-0.424-0.124-0.814-0.303-1.164-0.539c-0.352-0.238-0.64-0.533-0.859-0.885
		c-0.222-0.352-0.332-0.756-0.332-1.217c0-0.508,0.127-0.942,0.381-1.301c0.253-0.359,0.651-0.541,1.189-0.541
		c0.314,0,0.574,0.099,0.785,0.293c0.215,0.198,0.32,0.451,0.32,0.762c0,0.755-0.369,1.155-1.107,1.205
		c0.02,0.721,0.254,1.227,0.713,1.523c0.46,0.297,1.025,0.443,1.695,0.443c0.888,0,1.849-0.249,2.89-0.75
		c1.038-0.499,2.116-1.33,3.23-2.494c0.835-0.867,1.632-1.785,2.394-2.75c0.758-0.967,1.528-1.938,2.301-2.911
		c0.766-0.978,1.559-1.925,2.367-2.853c0.812-0.926,1.688-1.78,2.633-2.566c0.939-0.786,1.963-1.479,3.068-2.076
		c1.105-0.601,2.331-1.046,3.674-1.342L265.248,121.036z"/>
	<path fill="#727176" d="M276.181,130.275l2.555-0.146c-0.149,0.296-0.363,0.651-0.639,1.07c-0.277,0.417-0.582,0.866-0.91,1.351
		c-0.326,0.48-0.659,0.983-0.994,1.499c-0.336,0.514-0.645,1.014-0.92,1.496c-0.283,0.486-0.507,0.936-0.677,1.352
		c-0.173,0.419-0.257,0.775-0.257,1.072c0,0.409,0.202,0.613,0.613,0.613c0.393,0,0.926-0.23,1.598-0.688
		c0.67-0.458,1.375-1.065,2.113-1.817c0.308-0.313,0.625-0.648,0.943-1.01c0.32-0.357,0.627-0.715,0.925-1.067
		c0.292-0.353,0.563-0.679,0.808-0.979c0.247-0.306,0.443-0.559,0.592-0.754l0.172,0.1c-0.426,0.572-0.922,1.209-1.475,1.904
		c-0.557,0.699-1.229,1.438-2.016,2.225c-0.785,0.786-1.559,1.428-2.32,1.926c-0.76,0.504-1.521,0.754-2.273,0.754
		c-0.525,0-0.93-0.139-1.217-0.41c-0.287-0.27-0.428-0.6-0.428-0.994c0-0.13,0.006-0.253,0.023-0.369
		c0.016-0.114,0.039-0.202,0.072-0.27h-0.05c-0.508,0.574-1.079,1.059-1.718,1.45c-0.641,0.394-1.327,0.591-2.064,0.591
		c-0.393,0-0.729-0.074-1.009-0.225c-0.276-0.146-0.503-0.346-0.675-0.598c-0.172-0.256-0.299-0.544-0.382-0.862
		c-0.08-0.317-0.121-0.652-0.121-0.995c0-0.803,0.22-1.607,0.665-2.41c0.439-0.801,0.998-1.526,1.668-2.172
		c0.673-0.648,1.422-1.174,2.247-1.572c0.829-0.4,1.62-0.602,2.372-0.602c0.574,0,1.023,0.119,1.351,0.366
		c0.327,0.249,0.599,0.634,0.813,1.155L276.181,130.275z M269.044,137.806c0.154,0.354,0.486,0.527,0.994,0.527
		c0.346-0.016,0.701-0.157,1.082-0.431c0.375-0.27,0.742-0.606,1.092-1.018c0.352-0.41,0.687-0.865,1.007-1.363
		c0.319-0.498,0.602-1.005,0.837-1.514c0.236-0.505,0.424-0.985,0.565-1.436c0.138-0.45,0.206-0.832,0.206-1.143
		c0-0.443-0.084-0.786-0.244-1.034c-0.164-0.241-0.484-0.368-0.959-0.368c-0.38,0-0.758,0.114-1.145,0.345
		c-0.382,0.23-0.75,0.533-1.104,0.91s-0.686,0.798-1.006,1.266c-0.32,0.469-0.595,0.946-0.824,1.438
		c-0.229,0.489-0.409,0.962-0.541,1.411c-0.129,0.449-0.197,0.84-0.197,1.167C268.808,137.042,268.883,137.457,269.044,137.806"/>
	<path fill="#727176" d="M277.237,138.776c0.835-1.44,1.683-2.872,2.54-4.3c0.862-1.424,1.719-2.875,2.57-4.348l2.799-0.1
		l-3.24,4.57l0.047,0.049c0.624-0.769,1.18-1.389,1.658-1.854c0.484-0.469,0.906-0.851,1.264-1.145
		c0.363-0.294,0.666-0.52,0.91-0.674c0.246-0.156,0.428-0.293,0.543-0.405c0.178-0.181,0.345-0.323,0.504-0.431
		c0.152-0.107,0.336-0.188,0.55-0.246c0.214-0.055,0.474-0.094,0.774-0.108c0.304-0.018,0.684-0.034,1.146-0.05
		c-0.312,0.439-0.602,0.904-0.862,1.387c-0.262,0.484-0.392,1.004-0.392,1.561c0,0.705,0.353,1.061,1.056,1.061
		c0.23,0,0.455-0.055,0.676-0.154c0.223-0.095,0.432-0.219,0.627-0.365c0.197-0.148,0.385-0.308,0.565-0.479
		c0.179-0.172,0.345-0.333,0.492-0.481l0.097,0.127c-0.459,0.57-1,1.041-1.619,1.398c-0.627,0.36-1.306,0.539-2.042,0.539
		c-0.655,0-1.171-0.168-1.548-0.513c-0.374-0.346-0.564-0.854-0.564-1.524c0-0.424,0.124-0.828,0.369-1.205l-0.049-0.048
		c-0.69,0.456-1.344,0.989-1.965,1.595c-0.623,0.607-1.201,1.247-1.734,1.918c-0.531,0.671-1.023,1.363-1.474,2.075
		c-0.45,0.716-0.854,1.405-1.216,2.077L277.237,138.776z"/>
	<path fill="#727176" d="M294.779,130.129c-0.77,1.215-1.433,2.25-1.99,3.108c-0.557,0.86-1.01,1.591-1.364,2.199
		c-0.351,0.603-0.613,1.101-0.784,1.483c-0.174,0.387-0.257,0.701-0.257,0.947c0,0.195,0.038,0.355,0.108,0.48
		c0.076,0.122,0.187,0.182,0.333,0.182c0.327,0,0.79-0.187,1.387-0.563c0.6-0.378,1.35-1.026,2.249-1.942
		c0.361-0.375,0.712-0.75,1.057-1.119c0.344-0.368,0.67-0.725,0.971-1.068c0.303-0.344,0.572-0.656,0.811-0.934
		c0.237-0.277,0.432-0.498,0.578-0.663l0.222,0.149c-0.2,0.26-0.438,0.56-0.726,0.895c-0.287,0.338-0.596,0.688-0.922,1.057
		c-0.327,0.368-0.663,0.734-1.008,1.096c-0.346,0.359-0.681,0.703-1.006,1.031c-0.953,0.949-1.764,1.611-2.443,1.988
		c-0.682,0.379-1.309,0.563-1.879,0.563c-0.545,0-0.96-0.146-1.255-0.439c-0.294-0.293-0.442-0.68-0.442-1.154
		c0-0.328,0.061-0.669,0.184-1.02c0.125-0.352,0.332-0.791,0.627-1.313c0.297-0.524,0.688-1.178,1.181-1.954
		c0.491-0.781,1.106-1.741,1.842-2.889L294.779,130.129z M297.027,125.017c0.236,0.23,0.355,0.501,0.355,0.812
		c0,0.327-0.129,0.629-0.392,0.897c-0.265,0.27-0.558,0.406-0.884,0.406c-0.361,0-0.672-0.093-0.936-0.283
		c-0.263-0.188-0.393-0.47-0.393-0.847c0-0.379,0.145-0.693,0.432-0.947c0.284-0.254,0.616-0.381,0.993-0.381
		C296.515,124.674,296.79,124.789,297.027,125.017"/>
	<path fill="#727176" d="M297.21,139.172c-0.423,0-0.847-0.047-1.263-0.139c-0.419-0.09-0.796-0.236-1.132-0.439
		c-0.337-0.207-0.604-0.479-0.811-0.811c-0.203-0.336-0.309-0.752-0.309-1.242c0-0.265,0.037-0.525,0.111-0.789
		c0.073-0.259,0.186-0.497,0.332-0.709c0.148-0.215,0.332-0.392,0.554-0.527c0.222-0.141,0.478-0.21,0.775-0.21
		c0.376,0,0.664,0.105,0.87,0.32c0.203,0.211,0.309,0.456,0.309,0.737c0,0.344-0.101,0.604-0.297,0.784
		c-0.193,0.181-0.426,0.27-0.688,0.27c-0.213,0-0.393-0.042-0.541-0.123c-0.081,0.149-0.15,0.309-0.207,0.48
		c-0.057,0.174-0.087,0.349-0.087,0.527c0,0.46,0.177,0.835,0.53,1.132c0.351,0.293,0.765,0.439,1.238,0.439
		c0.297,0,0.594-0.047,0.897-0.146s0.574-0.24,0.81-0.43c0.238-0.188,0.432-0.412,0.579-0.676c0.146-0.259,0.222-0.549,0.222-0.859
		c0-0.423-0.104-0.814-0.309-1.166c-0.204-0.353-0.431-0.691-0.674-1.021c-0.246-0.325-0.471-0.659-0.678-0.993
		c-0.202-0.338-0.307-0.694-0.307-1.072c0-0.455,0.106-0.859,0.32-1.201c0.213-0.345,0.491-0.637,0.834-0.873
		c0.344-0.238,0.729-0.414,1.154-0.529c0.428-0.114,0.861-0.17,1.305-0.17c0.785,0,1.441,0.166,1.976,0.501
		c0.535,0.335,0.8,0.818,0.8,1.438c0,0.478-0.156,0.863-0.467,1.169c-0.311,0.304-0.703,0.453-1.18,0.453
		c-0.145,0-0.281-0.012-0.407-0.037c-0.121-0.021-0.224-0.052-0.307-0.086c0.181-0.328,0.307-0.652,0.384-0.967
		c0.071-0.322,0.108-0.639,0.108-0.949c0-0.327-0.093-0.613-0.28-0.86c-0.189-0.243-0.475-0.366-0.85-0.366
		c-0.458,0-0.811,0.143-1.055,0.43c-0.248,0.285-0.369,0.64-0.369,1.068c0,0.457,0.101,0.865,0.307,1.217
		c0.205,0.351,0.432,0.691,0.675,1.02c0.245,0.326,0.472,0.674,0.675,1.031c0.206,0.359,0.309,0.787,0.309,1.279
		c0,0.311-0.055,0.615-0.16,0.908c-0.107,0.294-0.251,0.555-0.428,0.785c-0.185,0.231-0.384,0.424-0.604,0.58
		C299.657,138.502,298.408,139.172,297.21,139.172"/>
	<g>
		<path fill="#727176" d="M167.625,146.459c-0.113,0.225-0.188,0.6-0.188,0.86c0,0.784,0.562,1.29,1.328,1.29
			c1.609,0,3.03-1.776,3.03-3.31c0-1.085-1.104-1.309-1.702-1.309c-3.89,0-9.313,5.479-9.313,10.21c0,1.834,0.879,3.143,2.504,3.143
			c2.132,0,4.284-2.055,4.284-4.375c0-1.011-0.354-1.814-1.459-1.814c-1.141,0-2.15,1.346-2.693,2.131l-0.188-0.094
			c0.86-1.271,1.927-2.486,3.629-2.486c1.29,0,2.206,0.859,2.206,2.132c0,3.031-3.386,4.733-6.265,4.733
			c-2.488,0-3.927-1.535-3.927-3.983c0-4.808,6.508-9.819,11.239-9.819c1.459,0,2.805,0.523,2.805,2.226
			c0,1.851-2.02,2.954-3.664,2.954c-1.03,0.02-2.04-0.486-2.04-1.626c0-0.337,0.13-0.747,0.225-0.917L167.625,146.459z"/>
		<path fill="#727176" d="M168.407,157.269l7.834-12.923l2.04-0.092l-6.208,9.798l0.038,0.038c1.104-1.309,2.786-3.703,4.731-3.703
			c0.785,0,1.272,0.411,1.272,1.234c0,1.366-2.619,3.835-2.619,5.049c0,0.319,0.15,0.449,0.393,0.449
			c1.122,0,4.244-3.609,5.069-4.77l0.112,0.113c-0.654,0.842-1.609,2.039-2.599,3.047c-1.347,1.386-2.188,1.946-3.18,1.946
			c-0.898,0-1.29-0.616-1.29-1.29c0-1.721,2.618-3.666,2.618-4.789c0-0.354-0.243-0.542-0.486-0.542
			c-1.608,0-4.862,4.527-5.797,6.378L168.407,157.269z"/>
		<path fill="#727176" d="M177.417,157.269c1.272-2.188,2.598-4.356,3.89-6.581l2.132-0.076l-2.468,3.479l0.038,0.037
			c1.87-2.318,2.954-2.729,3.328-3.104c0.542-0.542,0.86-0.599,2.263-0.636c-0.467,0.674-0.954,1.404-0.954,2.246
			c0,0.561,0.263,0.805,0.804,0.805c0.71,0,1.348-0.654,1.797-1.123l0.075,0.092c-0.692,0.86-1.665,1.477-2.787,1.477
			c-0.991,0-1.608-0.541-1.608-1.552c0-0.317,0.111-0.654,0.28-0.915l-0.039-0.037c-2.113,1.404-3.759,3.797-4.862,5.836
			L177.417,157.269z"/>
		<path fill="#727176" d="M190.768,150.688c-2.338,3.684-3.348,5.123-3.348,5.89c0,0.3,0.112,0.504,0.337,0.504
			c0.486,0,1.402-0.522,2.767-1.906c1.104-1.123,2.152-2.356,2.6-2.883l0.168,0.112c-0.617,0.785-1.814,2.133-2.787,3.105
			c-1.439,1.44-2.413,1.945-3.29,1.945c-0.823,0-1.291-0.505-1.291-1.215c0-0.974,0.692-1.946,2.918-5.462L190.768,150.688z
			 M192.751,147.412c0,0.506-0.469,0.992-0.973,0.992c-0.542,0-1.009-0.281-1.009-0.861s0.523-1.01,1.083-1.01
			C192.32,146.534,192.751,146.945,192.751,147.412z"/>
		<path fill="#727176" d="M194.113,157.213c2.543-0.561,4.264-2.768,5.854-4.863l0.15,0.113c-1.982,2.618-3.872,5.107-7.5,5.107
			c-1.29,0-2.673-0.489-2.673-2.004c0-0.783,0.467-1.698,1.346-1.698c0.58,0,0.898,0.39,0.898,0.804
			c0,0.523-0.356,0.805-0.748,0.805c-0.15,0-0.28-0.02-0.413-0.094c-0.13,0.223-0.223,0.485-0.223,0.767
			c0,0.691,0.617,1.196,1.346,1.196c0.916,0,1.908-0.636,1.908-1.609c0-0.654-0.375-1.177-0.748-1.664
			c-0.375-0.504-0.748-0.99-0.748-1.57c0-1.404,1.422-2.114,2.748-2.114c1.197,0,2.115,0.543,2.115,1.479
			c0,0.71-0.544,1.233-1.254,1.233c-0.225,0-0.432-0.055-0.543-0.092c0.263-0.488,0.375-0.992,0.375-1.459
			c0-0.504-0.281-0.936-0.86-0.936c-0.691,0-1.085,0.486-1.085,1.143c0,0.691,0.375,1.197,0.748,1.701
			c0.375,0.486,0.748,1.011,0.748,1.759c0,0.973-0.711,1.796-1.439,1.962v0.035H194.113z"/>
		<path fill="#727176" d="M198.898,151.022l0.13-0.337h1.44l1.402-2.356l2.02-0.075l-1.552,2.432h2.375l-0.167,0.337h-2.414
			c-2.244,3.702-3.011,4.825-3.011,5.555c0,0.318,0.188,0.542,0.505,0.542c0.617,0,1.723-0.674,2.881-1.795
			c0.804-0.785,1.814-1.945,2.637-3.032l0.111,0.094c-0.561,0.748-1.477,1.908-2.525,2.956c-1.158,1.158-2.469,2.113-3.609,2.113
			c-0.785,0-1.496-0.317-1.496-1.215c0-1.292,1.178-2.639,2.674-5.219L198.898,151.022L198.898,151.022z"/>
		<path fill="#727176" d="M207.725,150.688c-2.339,3.684-3.349,5.123-3.349,5.89c0,0.3,0.113,0.504,0.337,0.504
			c0.487,0,1.402-0.522,2.769-1.906c1.103-1.123,2.15-2.356,2.599-2.883l0.169,0.112c-0.617,0.785-1.814,2.133-2.788,3.105
			c-1.438,1.44-2.412,1.945-3.29,1.945c-0.822,0-1.289-0.505-1.289-1.215c0-0.974,0.691-1.946,2.916-5.462L207.725,150.688z
			 M209.707,147.412c0,0.506-0.468,0.992-0.973,0.992c-0.543,0-1.009-0.281-1.009-0.861s0.524-1.01,1.085-1.01
			C209.277,146.534,209.707,146.945,209.707,147.412z"/>
		<path fill="#727176" d="M215.391,150.798l1.944-0.11c-0.693,1.326-3.348,4.637-3.348,5.965c0,0.337,0.188,0.467,0.467,0.467
			c0.6,0,1.702-0.768,2.824-1.906c0.934-0.957,2.039-2.303,2.488-2.9l0.129,0.074c-0.654,0.861-1.477,1.945-2.654,3.143
			c-1.18,1.197-2.356,2.039-3.498,2.039c-0.785,0-1.254-0.469-1.254-1.066c0-0.188,0.019-0.393,0.076-0.485h-0.038
			c-0.767,0.858-1.776,1.55-2.88,1.55c-1.217,0-1.665-0.991-1.665-2.039c0-2.432,2.974-5.143,5.292-5.143
			c0.86,0,1.328,0.375,1.646,1.161L215.391,150.798z M210.714,156.934c1.59-0.113,3.647-3.854,3.647-5.257
			c0-0.673-0.205-1.066-0.917-1.066c-1.721,0-3.664,3.458-3.664,4.976C209.781,156.296,209.947,156.934,210.714,156.934z"/>
		<path fill="#727176" d="M219.857,154.052c0.709-0.897,2.768-3.665,4.713-3.665c0.822,0,1.252,0.523,1.252,1.196
			c0,1.684-2.582,3.647-2.582,5.031c0,0.3,0.151,0.505,0.488,0.505c0.355,0,1.141-0.43,2.506-1.889
			c1.066-1.141,2.039-2.355,2.488-2.899l0.187,0.094c-0.653,0.767-1.646,2.021-2.712,3.142c-1.309,1.367-2.094,1.89-3.066,1.89
			c-0.955,0-1.385-0.616-1.385-1.29c0-1.684,2.58-3.703,2.58-4.863c0-0.262-0.186-0.468-0.523-0.468
			c-1.477,0-4.824,4.527-5.76,6.378l-1.89,0.056c1.31-2.188,2.675-4.338,3.966-6.581l2.132-0.076l-2.431,3.403L219.857,154.052z"/>
		<path fill="#727176" d="M240.796,148.181c0.057,0.298,0.131,0.822,0.131,1.347c0,2.318-1.309,4.375-3.908,4.375
			c-1.89,0-3.011-1.309-3.011-3.16c0-4.097,5.536-6.977,9.612-6.977c1.665,0,3.086,0.301,4.471,0.879
			c0.974-0.412,1.982-0.822,3.049-0.879l0.037,0.112c-0.691,0-2.15,0.562-2.619,1.011c0.955,0.542,1.571,1.42,1.571,2.543
			c0,2.151-2.375,2.975-4.114,3.256l-0.02,0.035c1.553,0.188,3.086,0.412,3.086,2.375c0,2.75-2.579,4.471-5.123,4.471
			c-1.048,0-2.301-0.523-2.301-1.684c0-0.635,0.523-1.197,1.159-1.197c0.375,0,0.71,0.131,0.991,0.375
			c-0.504,0.3-0.729,0.767-0.729,1.309c0,0.637,0.375,0.973,1.01,0.973c1.963,0,3.198-2.395,3.198-4.133
			c0-1.646-0.86-2.376-2.638-2.376l0.02-0.147c1.833-0.113,3.777-1.104,3.777-3.33c0-0.691-0.242-1.364-0.786-1.833
			c-3.739,2.974-4.769,12.046-12.173,12.046c-1.59,0-3.199-0.881-3.199-2.414c0-0.709,0.393-1.326,1.18-1.326
			c0.578,0,0.934,0.391,0.934,0.916c0,0.468-0.375,0.82-0.673,0.879c-0.019,0.074-0.019,0.149-0.019,0.225
			c0,1.01,0.691,1.496,1.945,1.496c5.104,0,5.871-9.201,11.5-12.232c-0.989-0.766-2.393-1.121-3.646-1.121
			c-3.554,0-8.005,2.58-8.005,6.826c0,1.217,0.654,2.75,2.076,2.75c1.927,0,3.125-1.908,3.125-3.965c0-0.6-0.076-1.01-0.113-1.403
			L240.796,148.181z"/>
		<path fill="#727176" d="M248.533,157.269c1.271-2.188,2.599-4.356,3.891-6.581l2.131-0.076l-2.469,3.479l0.037,0.037
			c1.871-2.318,2.955-2.729,3.328-3.104c0.543-0.542,0.86-0.599,2.264-0.636c-0.467,0.674-0.953,1.404-0.953,2.246
			c0,0.561,0.262,0.805,0.804,0.805c0.71,0,1.348-0.654,1.796-1.123l0.074,0.092c-0.691,0.86-1.664,1.477-2.785,1.477
			c-0.992,0-1.608-0.541-1.608-1.552c0-0.317,0.11-0.654,0.279-0.915l-0.037-0.037c-2.112,1.404-3.761,3.797-4.862,5.836
			L248.533,157.269z"/>
		<path fill="#727176" d="M268.503,152.425c-0.504,0.636-1.196,1.272-2.02,1.272c-0.579,0-0.973-0.262-1.328-0.71
			c-0.58,2.487-2.88,4.581-5.479,4.581c-1.364,0-2.264-0.842-2.264-2.206c0-2.656,3.01-4.976,5.5-4.976
			c1.326,0,2.131,0.842,2.3,1.853c0.131,0.748,0.579,1.233,1.271,1.233c0.674,0,1.236-0.393,1.908-1.196L268.503,152.425z
			 M263.64,151.602c0-0.616-0.26-0.991-0.822-0.991c-1.889,0-3.834,4.171-3.834,5.741c0,0.619,0.263,0.992,0.823,0.992
			C261.697,157.344,263.64,153.173,263.64,151.602z"/>
		<path fill="#727176" d="M267.248,151.022l0.131-0.337h1.439l1.402-2.356l2.02-0.075l-1.553,2.432h2.375l-0.166,0.337h-2.413
			c-2.245,3.702-3.013,4.825-3.013,5.555c0,0.318,0.188,0.542,0.506,0.542c0.617,0,1.722-0.674,2.88-1.795
			c0.804-0.785,1.815-1.945,2.638-3.032l0.112,0.094c-0.562,0.748-1.479,1.908-2.526,2.956c-1.158,1.158-2.467,2.113-3.609,2.113
			c-0.785,0-1.496-0.317-1.496-1.215c0-1.292,1.178-2.639,2.674-5.219L267.248,151.022L267.248,151.022z"/>
		<path fill="#727176" d="M269.975,157.269l7.836-12.923l2.04-0.092l-6.209,9.798l0.037,0.038c1.103-1.309,2.785-3.703,4.731-3.703
			c0.786,0,1.271,0.411,1.271,1.234c0,1.366-2.618,3.835-2.618,5.049c0,0.319,0.149,0.449,0.394,0.449
			c1.121,0,4.246-3.609,5.066-4.77l0.113,0.113c-0.654,0.842-1.608,2.039-2.598,3.047c-1.347,1.386-2.188,1.946-3.18,1.946
			c-0.898,0-1.29-0.616-1.29-1.29c0-1.721,2.617-3.666,2.617-4.789c0-0.354-0.242-0.542-0.485-0.542
			c-1.609,0-4.863,4.527-5.799,6.378L269.975,157.269z"/>
		<path fill="#727176" d="M290.339,152.369c-0.768,1.028-1.609,2.058-2.824,3.16c-1.721,1.552-3.328,2.039-4.712,2.039
			c-1.421,0-2.3-0.936-2.3-2.281c0-2.394,3.234-4.9,5.572-4.9c1.065,0,1.703,0.43,1.703,1.178c0,1.814-4.078,2.6-5.389,2.881
			c-0.056,0.225-0.092,0.448-0.092,0.674c0,1.066,0.636,1.814,1.701,1.814c1.047,0,2.355-0.656,3.629-1.834
			c0.971-0.918,1.906-2.004,2.581-2.86L290.339,152.369z M285.777,150.611c-1.254,0-3.031,2.395-3.349,3.646
			c2.038-0.41,3.853-1.945,3.853-3.162C286.281,150.76,286.074,150.611,285.777,150.611z"/>
		<path fill="#727176" d="M286.595,157.269c1.273-2.188,2.601-4.356,3.891-6.581l2.133-0.076l-2.469,3.479l0.037,0.037
			c1.871-2.318,2.955-2.729,3.33-3.104c0.541-0.542,0.857-0.599,2.262-0.636c-0.469,0.674-0.953,1.404-0.953,2.246
			c0,0.561,0.262,0.805,0.804,0.805c0.708,0,1.346-0.654,1.796-1.123l0.074,0.092c-0.693,0.86-1.664,1.477-2.787,1.477
			c-0.991,0-1.608-0.541-1.608-1.552c0-0.317,0.112-0.654,0.281-0.915l-0.038-0.037c-2.113,1.404-3.76,3.797-4.861,5.836
			L286.595,157.269z"/>
		<path fill="#727176" d="M298.449,157.213c2.544-0.561,4.267-2.768,5.854-4.863l0.149,0.113c-1.98,2.618-3.871,5.107-7.5,5.107
			c-1.289,0-2.673-0.489-2.673-2.004c0-0.783,0.469-1.698,1.347-1.698c0.58,0,0.897,0.39,0.897,0.804
			c0,0.523-0.354,0.805-0.748,0.805c-0.149,0-0.28-0.02-0.411-0.094c-0.131,0.223-0.225,0.485-0.225,0.767
			c0,0.691,0.617,1.196,1.346,1.196c0.917,0,1.908-0.636,1.908-1.609c0-0.654-0.375-1.177-0.748-1.664
			c-0.375-0.504-0.748-0.99-0.748-1.57c0-1.404,1.424-2.114,2.749-2.114c1.198,0,2.114,0.543,2.114,1.479
			c0,0.71-0.542,1.233-1.254,1.233c-0.223,0-0.43-0.055-0.542-0.092c0.263-0.488,0.375-0.992,0.375-1.459
			c0-0.504-0.281-0.936-0.86-0.936c-0.691,0-1.084,0.486-1.084,1.143c0,0.691,0.373,1.197,0.746,1.701
			c0.375,0.486,0.748,1.011,0.748,1.759c0,0.973-0.711,1.796-1.439,1.962v0.035H298.449z"/>
	</g>
</g>
</svg>
